<?xml version="1.0" encoding="utf-8"?>
<!-- Generator: Adobe Illustrator 28.2.0, SVG Export Plug-In . SVG Version: 6.00 Build 0)  -->
<svg version="1.1" id="Livello_1" xmlns="http://www.w3.org/2000/svg" xmlns:xlink="http://www.w3.org/1999/xlink" x="0px" y="0px"
	 viewBox="0 0 851.61 211.25" style="enable-background:new 0 0 851.61 211.25;" xml:space="preserve">
<style type="text/css">
	.st0{fill:#FFFFFF;}
	.st1{fill:#F5A11D;}
</style>
<g>
	<g>
		<g>
			<g>
				<g>
					<path class="st0" d="M102.26,72.11v15.44l0.4,18.36l-1.34,18.25v10.72c0,6.52-1.7,11.44-5.09,14.74
						c-3.4,3.33-8.76,4.98-16.09,4.98c-4.76,0-9.43-0.74-14.03-2.21c-4.6-1.47-8.47-3.53-11.59-6.12l-8.31,15.17
						c4.2,3.31,9.45,5.79,15.75,7.44c6.3,1.65,12.85,2.48,19.66,2.48c13.05,0,23.06-3.19,30.03-9.58
						c6.99-6.39,10.48-16.26,10.48-29.58v-60.1H102.26z M105.34,86.21c-0.89-1.81-1.92-3.44-3.08-4.91
						c-2.12-2.77-4.71-4.94-7.71-6.55c-4.6-2.48-10.03-3.71-16.29-3.71c-6.55,0-12.53,1.43-17.98,4.29
						c-5.45,2.88-9.79,6.93-13,12.15c-3.22,5.23-4.83,11.37-4.83,18.43c0,6.99,1.61,13.09,4.83,18.32c3.22,5.23,7.55,9.29,13,12.2
						s11.44,4.36,17.98,4.36c6.26,0,11.68-1.25,16.29-3.75c2.57-1.41,4.85-3.22,6.77-5.45c1.54-1.74,2.88-3.75,4.02-6.01
						c2.59-5.14,3.89-11.68,3.89-19.66C109.23,97.96,107.93,91.39,105.34,86.21z M99.04,115.18c-1.61,2.68-3.84,4.78-6.7,6.3
						c-2.86,1.52-6.12,2.28-9.78,2.28c-3.6,0-6.84-0.76-9.74-2.28c-2.9-1.52-5.18-3.62-6.84-6.3c-1.65-2.7-2.48-5.79-2.48-9.27
						c0-3.57,0.83-6.68,2.48-9.32c1.65-2.64,3.93-4.67,6.84-6.1c2.9-1.43,6.14-2.14,9.74-2.14c3.66,0,6.93,0.71,9.78,2.14
						s5.09,3.46,6.7,6.1c1.61,2.64,2.41,5.74,2.41,9.32C101.45,109.4,100.65,112.48,99.04,115.18z"/>
					<path class="st0" d="M210.36,88.95c-3.4-5.59-8.09-9.96-14.07-13.16c-6.01-3.15-12.85-4.76-20.53-4.76
						c-7.6,0-14.36,1.61-20.33,4.76c-5.94,3.19-10.61,7.57-14.01,13.16c-3.4,5.59-5.09,12-5.09,19.24c0,7.17,1.7,13.54,5.09,19.12
						c3.4,5.59,8.07,9.99,14.01,13.2c5.97,3.22,12.73,4.83,20.33,4.83c7.69,0,14.52-1.61,20.53-4.83
						c5.99-3.22,10.68-7.6,14.07-13.14c3.4-5.54,5.09-11.93,5.09-19.19C215.46,100.95,213.76,94.54,210.36,88.95z M191.77,118.94
						c-1.65,3.04-3.84,5.34-6.57,6.9c-2.73,1.56-5.88,2.35-9.45,2.35c-3.4,0-6.48-0.78-9.25-2.35c-2.77-1.56-4.98-3.86-6.64-6.9
						c-1.65-3.04-2.48-6.64-2.48-10.75c0-4.2,0.83-7.77,2.48-10.72c1.65-2.95,3.87-5.21,6.64-6.77c2.77-1.56,5.9-2.35,9.38-2.35
						c3.49,0,6.59,0.78,9.32,2.35c2.73,1.56,4.91,3.82,6.57,6.77c1.65,2.95,2.5,6.52,2.5,10.72
						C194.28,112.3,193.43,115.9,191.77,118.94z"/>
					<path class="st0" d="M299.08,52.94c-6.66-2.77-14.14-4.16-22.45-4.16c-7.53,0-14.41,1.18-20.67,3.55
						c-6.25,2.37-11.71,5.74-16.35,10.12c-4.65,4.38-8.27,9.52-10.81,15.44c-2.55,5.9-3.82,12.38-3.82,19.44
						c0,7.06,1.27,13.54,3.82,19.46c2.55,5.9,6.12,11.04,10.68,15.42c4.56,4.38,9.96,7.75,16.22,10.12c3.78,1.43,7.77,2.44,12,2.99
						v-19.19c-0.87-0.25-1.72-0.56-2.55-0.89c-3.71-1.52-6.93-3.62-9.65-6.3c-2.73-2.68-4.83-5.88-6.3-9.61
						c-1.47-3.71-2.21-7.71-2.21-12c0-4.47,0.74-8.53,2.21-12.2c1.47-3.66,3.57-6.84,6.3-9.52c2.73-2.7,5.96-4.78,9.72-6.26
						c3.78-1.47,7.89-2.21,12.35-2.21c4.83,0,9.25,0.87,13.27,2.61c4.02,1.74,7.77,4.45,11.26,8.13l13.83-12.89
						C311.36,59.73,305.73,55.71,299.08,52.94z"/>
					<path class="st0" d="M360.31,75.01c-3.04,1.7-5.54,3.89-7.51,6.59v-9.49h-19.99v72.16h20.93V110.2
						c0-6.88,1.74-11.97,5.23-15.28c3.49-3.31,8.18-4.96,14.07-4.96c0.71,0,1.45,0.04,2.21,0.13c0.76,0.09,1.54,0.22,2.35,0.4V71.04
						C370.81,71.04,365.05,72.36,360.31,75.01z"/>
					<path class="st0" d="M458.23,88.95c-3.42-5.59-8.11-9.96-14.1-13.16c-5.99-3.15-12.82-4.76-20.51-4.76
						c-7.62,0-14.39,1.61-20.33,4.76c-5.94,3.19-10.61,7.57-14.01,13.16c-3.4,5.59-5.09,12-5.09,19.24c0,7.17,1.7,13.54,5.09,19.12
						c3.4,5.59,8.06,9.99,14.01,13.2c5.94,3.22,12.71,4.83,20.33,4.83c7.69,0,14.52-1.61,20.51-4.83c5.99-3.22,10.68-7.6,14.1-13.14
						c3.4-5.54,5.09-11.93,5.09-19.19C463.33,100.95,461.63,94.54,458.23,88.95z M439.65,118.94c-1.65,3.04-3.84,5.34-6.57,6.9
						s-5.88,2.35-9.45,2.35c-3.42,0-6.5-0.78-9.27-2.35s-4.98-3.86-6.64-6.9c-1.65-3.04-2.48-6.64-2.48-10.75
						c0-4.2,0.83-7.77,2.48-10.72c1.65-2.95,3.86-5.21,6.64-6.77s5.92-2.35,9.41-2.35s6.59,0.78,9.32,2.35s4.91,3.82,6.57,6.77
						c1.65,2.95,2.48,6.52,2.48,10.72C442.12,112.3,441.3,115.9,439.65,118.94z"/>
					<path class="st0" d="M572.64,72.11L555.1,121.3l-17.2-49.19h-17.85l-17.67,48.7l-16.93-48.7h-19.7l26,72.16h20.26l16.55-44.95
						l16.31,44.95h20.11l26.16-72.16H572.64z"/>
					<path class="st0" d="M600.92,72.11v72.16h20.93V72.11H600.92z M620.85,41.88c-2.46-2.1-5.61-3.15-9.45-3.15
						c-3.95,0-7.13,1.12-9.54,3.35c-2.41,2.23-3.62,5-3.62,8.31c0,3.31,1.21,6.08,3.62,8.31c2.41,2.23,5.59,3.35,9.54,3.35
						c3.93,0,7.1-1.14,9.52-3.42c2.41-2.28,3.62-5.16,3.62-8.65C624.54,46.69,623.31,43.98,620.85,41.88z"/>
					<path class="st0" d="M711.17,84.93c-2.59-4.69-6.14-8.18-10.66-10.46c-4.51-2.3-9.63-3.44-15.37-3.44
						c-6.17,0-11.66,1.32-16.49,3.91c-2.86,1.52-5.32,3.44-7.37,5.76v-8.6h-20v72.16h20.93v-35.68c0-4.56,0.74-8.22,2.21-10.99
						c1.47-2.77,3.53-4.87,6.17-6.3c2.64-1.43,5.61-2.14,8.91-2.14c4.65,0,8.27,1.39,10.81,4.16c2.55,2.77,3.82,7.06,3.82,12.87
						v38.09h20.91v-41.31C715.06,95.63,713.77,89.62,711.17,84.93z"/>
					<path class="st0" d="M789.1,72.11v15.44l0.4,18.36l-1.34,18.25v10.72c0,6.52-1.7,11.44-5.09,14.74
						c-3.4,3.33-8.76,4.98-16.09,4.98c-4.76,0-9.43-0.74-14.03-2.21c-4.6-1.47-8.47-3.53-11.59-6.12l-8.31,15.17
						c4.2,3.31,9.45,5.79,15.75,7.44c6.3,1.65,12.85,2.48,19.66,2.48c13.05,0,23.06-3.19,30.03-9.58
						c6.99-6.39,10.48-16.26,10.48-29.58v-60.1H789.1z M792.18,86.21c-0.89-1.81-1.92-3.44-3.08-4.91
						c-2.12-2.77-4.71-4.94-7.71-6.55c-4.6-2.48-10.03-3.71-16.29-3.71c-6.55,0-12.53,1.43-17.98,4.29
						c-5.45,2.88-9.78,6.93-13,12.15c-3.22,5.23-4.83,11.37-4.83,18.43c0,6.99,1.61,13.09,4.83,18.32c3.22,5.23,7.55,9.29,13,12.2
						s11.44,4.36,17.98,4.36c6.26,0,11.68-1.25,16.29-3.75c2.57-1.41,4.85-3.22,6.77-5.45c1.54-1.74,2.88-3.75,4.02-6.01
						c2.59-5.14,3.89-11.68,3.89-19.66C796.07,97.96,794.77,91.39,792.18,86.21z M785.88,115.18c-1.61,2.68-3.84,4.78-6.7,6.3
						c-2.86,1.52-6.12,2.28-9.79,2.28c-3.57,0-6.84-0.76-9.74-2.28c-2.9-1.52-5.18-3.62-6.84-6.3c-1.65-2.7-2.48-5.79-2.48-9.27
						c0-3.57,0.83-6.68,2.48-9.32c1.65-2.64,3.93-4.67,6.84-6.1c2.9-1.43,6.17-2.14,9.74-2.14c3.66,0,6.93,0.71,9.79,2.14
						c2.86,1.43,5.09,3.46,6.7,6.1c1.61,2.64,2.41,5.74,2.41,9.32C788.29,109.4,787.49,112.48,785.88,115.18z"/>
				</g>
			</g>
			<g>
				<g>
					<polygon class="st1" points="314.18,95.86 314.18,145.12 294.32,145.12 294.32,115.72 267.69,115.72 267.69,95.86 					"/>
					<rect x="267.15" y="95.86" class="st1" width="0.54" height="19.86"/>
				</g>
			</g>
		</g>
	</g>
	<g>
		<path class="st0" d="M204.51,171.83c-1.36,0-2.61-0.22-3.75-0.68c-1.14-0.45-2.14-1.09-2.98-1.91c-0.84-0.82-1.5-1.79-1.97-2.89
			c-0.48-1.1-0.71-2.32-0.71-3.64c0-1.33,0.24-2.54,0.71-3.64c0.48-1.1,1.14-2.07,1.99-2.89c0.85-0.82,1.85-1.46,2.99-1.91
			c1.15-0.45,2.4-0.68,3.76-0.68c1.37,0,2.64,0.23,3.8,0.7c1.16,0.47,2.15,1.16,2.97,2.08l-1.65,1.6c-0.68-0.71-1.45-1.24-2.29-1.59
			c-0.85-0.35-1.76-0.52-2.73-0.52c-1,0-1.93,0.17-2.79,0.51c-0.85,0.34-1.6,0.81-2.23,1.43c-0.63,0.61-1.12,1.33-1.46,2.18
			c-0.35,0.84-0.52,1.75-0.52,2.74c0,0.98,0.17,1.89,0.52,2.74c0.34,0.84,0.83,1.57,1.46,2.18c0.63,0.61,1.37,1.09,2.23,1.43
			c0.86,0.34,1.79,0.51,2.79,0.51c0.97,0,1.88-0.17,2.73-0.52c0.85-0.35,1.61-0.89,2.29-1.62l1.65,1.6
			c-0.82,0.92-1.8,1.61-2.97,2.09C207.18,171.59,205.9,171.83,204.51,171.83z"/>
		<path class="st0" d="M228.98,171.83c-1.36,0-2.62-0.23-3.78-0.69c-1.16-0.46-2.17-1.1-3.02-1.92c-0.85-0.82-1.51-1.79-1.99-2.89
			s-0.71-2.31-0.71-3.61c0-1.31,0.24-2.52,0.71-3.62s1.14-2.06,1.99-2.89c0.85-0.82,1.85-1.46,3-1.92c1.16-0.46,2.42-0.69,3.8-0.69
			c1.36,0,2.62,0.22,3.77,0.68c1.16,0.45,2.16,1.09,3,1.91c0.85,0.82,1.51,1.79,1.97,2.9c0.47,1.11,0.7,2.32,0.7,3.63
			c0,1.32-0.23,2.54-0.7,3.64c-0.46,1.1-1.12,2.07-1.97,2.89c-0.85,0.82-1.85,1.46-3,1.91C231.6,171.61,230.34,171.83,228.98,171.83
			z M228.96,169.56c1,0,1.92-0.17,2.76-0.51c0.84-0.34,1.57-0.82,2.19-1.44c0.62-0.62,1.1-1.34,1.45-2.18
			c0.35-0.83,0.52-1.74,0.52-2.72c0-0.99-0.17-1.89-0.52-2.71c-0.35-0.82-0.83-1.55-1.45-2.18c-0.62-0.63-1.35-1.11-2.19-1.45
			c-0.84-0.34-1.76-0.51-2.76-0.51c-0.99,0-1.9,0.17-2.74,0.51c-0.84,0.34-1.57,0.82-2.2,1.45c-0.63,0.63-1.12,1.36-1.46,2.18
			c-0.35,0.82-0.52,1.73-0.52,2.71c0,0.98,0.17,1.89,0.52,2.72c0.34,0.83,0.83,1.56,1.46,2.18c0.63,0.62,1.36,1.1,2.2,1.44
			C227.06,169.39,227.97,169.56,228.96,169.56z"/>
		<path class="st0" d="M248.69,171.63V153.8h6.95c1.56,0,2.89,0.25,4,0.74c1.1,0.49,1.95,1.21,2.55,2.14
			c0.59,0.94,0.89,2.05,0.89,3.34c0,1.29-0.3,2.4-0.89,3.32c-0.6,0.92-1.45,1.63-2.55,2.13c-1.1,0.49-2.44,0.74-4,0.74h-5.55
			l1.15-1.17v6.59H248.69z M251.24,165.29l-1.15-1.25h5.47c1.63,0,2.86-0.35,3.7-1.06c0.84-0.7,1.26-1.69,1.26-2.97
			c0-1.27-0.42-2.25-1.26-2.95c-0.84-0.7-2.08-1.04-3.7-1.04h-5.47l1.15-1.27V165.29z M260.61,171.63l-4.53-6.47h2.73l4.58,6.47
			H260.61z"/>
		<path class="st0" d="M273.57,171.63V153.8h6.95c1.56,0,2.89,0.25,4,0.74c1.1,0.49,1.95,1.21,2.54,2.14
			c0.6,0.94,0.89,2.05,0.89,3.34c0,1.29-0.29,2.4-0.89,3.32c-0.59,0.92-1.44,1.64-2.54,2.14c-1.11,0.5-2.44,0.75-4,0.75h-5.55
			l1.14-1.19v6.59H273.57z M276.11,165.29l-1.14-1.27h5.47c1.63,0,2.86-0.35,3.71-1.04c0.84-0.7,1.26-1.68,1.26-2.95
			c0-1.27-0.42-2.25-1.26-2.95c-0.84-0.7-2.08-1.04-3.71-1.04h-5.47l1.14-1.27V165.29z"/>
		<path class="st0" d="M306.36,171.83c-1.36,0-2.62-0.23-3.78-0.69c-1.16-0.46-2.17-1.1-3.02-1.92c-0.85-0.82-1.51-1.79-1.99-2.89
			c-0.48-1.1-0.71-2.31-0.71-3.61c0-1.31,0.24-2.52,0.71-3.62c0.47-1.1,1.14-2.06,1.99-2.89c0.85-0.82,1.85-1.46,3-1.92
			c1.15-0.46,2.42-0.69,3.79-0.69c1.36,0,2.62,0.22,3.77,0.68c1.15,0.45,2.16,1.09,3,1.91c0.85,0.82,1.5,1.79,1.97,2.9
			c0.46,1.11,0.7,2.32,0.7,3.63c0,1.32-0.24,2.54-0.7,3.64c-0.47,1.1-1.13,2.07-1.97,2.89c-0.85,0.82-1.85,1.46-3,1.91
			C308.97,171.61,307.72,171.83,306.36,171.83z M306.33,169.56c1,0,1.92-0.17,2.76-0.51c0.84-0.34,1.57-0.82,2.19-1.44
			c0.62-0.62,1.1-1.34,1.45-2.18c0.35-0.83,0.52-1.74,0.52-2.72c0-0.99-0.17-1.89-0.52-2.71c-0.35-0.82-0.83-1.55-1.45-2.18
			c-0.62-0.63-1.35-1.11-2.19-1.45c-0.84-0.34-1.76-0.51-2.76-0.51c-0.98,0-1.89,0.17-2.74,0.51c-0.84,0.34-1.57,0.82-2.2,1.45
			c-0.63,0.63-1.11,1.36-1.46,2.18c-0.35,0.82-0.52,1.73-0.52,2.71c0,0.98,0.17,1.89,0.52,2.72s0.84,1.56,1.46,2.18
			c0.63,0.62,1.36,1.1,2.2,1.44C304.44,169.39,305.35,169.56,306.33,169.56z"/>
		<path class="st0" d="M326.07,171.63V153.8h6.95c1.56,0,2.89,0.25,4,0.74c1.1,0.49,1.95,1.21,2.54,2.14
			c0.6,0.94,0.89,2.05,0.89,3.34c0,1.29-0.29,2.4-0.89,3.32c-0.59,0.92-1.44,1.63-2.54,2.13c-1.11,0.49-2.44,0.74-4,0.74h-5.55
			l1.14-1.17v6.59H326.07z M328.61,165.29l-1.14-1.25h5.47c1.63,0,2.86-0.35,3.7-1.06c0.84-0.7,1.26-1.69,1.26-2.97
			c0-1.27-0.42-2.25-1.26-2.95c-0.84-0.7-2.08-1.04-3.7-1.04h-5.47l1.14-1.27V165.29z M337.98,171.63l-4.53-6.47h2.72l4.58,6.47
			H337.98z"/>
		<path class="st0" d="M348.25,171.63l8.07-17.82h2.52l8.1,17.82h-2.67l-7.21-16.4h1.02l-7.21,16.4H348.25z M351.69,167.17
			l0.68-2.04h10.03l0.74,2.04H351.69z"/>
		<path class="st0" d="M378.6,171.63v-15.61h-6.11v-2.22h14.75v2.22h-6.11v15.61H378.6z"/>
		<path class="st0" d="M398.92,169.41h10.39v2.22h-12.94V153.8h12.58v2.22h-10.03V169.41z M398.69,161.5h9.17v2.16h-9.17V161.5z"/>
		<path class="st0" d="M433.01,171.63V153.8h2.55v17.82H433.01z"/>
		<path class="st0" d="M447.27,171.63V153.8h2.09l11.79,14.64h-1.09V153.8h2.55v17.82h-2.09l-11.79-14.64h1.09v14.64H447.27z"/>
		<path class="st0" d="M474.31,171.63V153.8h2.09l11.79,14.64h-1.09V153.8h2.55v17.82h-2.09l-11.79-14.64h1.09v14.64H474.31z"/>
		<path class="st0" d="M509.4,171.83c-1.36,0-2.62-0.23-3.78-0.69c-1.16-0.46-2.17-1.1-3.02-1.92c-0.85-0.82-1.51-1.79-1.99-2.89
			c-0.48-1.1-0.71-2.31-0.71-3.61c0-1.31,0.24-2.52,0.71-3.62c0.47-1.1,1.14-2.06,1.99-2.89c0.85-0.82,1.85-1.46,3-1.92
			c1.15-0.46,2.42-0.69,3.79-0.69c1.36,0,2.62,0.22,3.77,0.68c1.15,0.45,2.16,1.09,3,1.91c0.85,0.82,1.5,1.79,1.97,2.9
			c0.46,1.11,0.7,2.32,0.7,3.63c0,1.32-0.24,2.54-0.7,3.64c-0.47,1.1-1.13,2.07-1.97,2.89c-0.85,0.82-1.85,1.46-3,1.91
			C512.01,171.61,510.76,171.83,509.4,171.83z M509.37,169.56c1,0,1.92-0.17,2.76-0.51c0.84-0.34,1.57-0.82,2.19-1.44
			c0.62-0.62,1.1-1.34,1.45-2.18c0.35-0.83,0.52-1.74,0.52-2.72c0-0.99-0.17-1.89-0.52-2.71c-0.35-0.82-0.83-1.55-1.45-2.18
			c-0.62-0.63-1.35-1.11-2.19-1.45c-0.84-0.34-1.76-0.51-2.76-0.51c-0.98,0-1.89,0.17-2.74,0.51c-0.84,0.34-1.57,0.82-2.2,1.45
			c-0.63,0.63-1.11,1.36-1.46,2.18c-0.35,0.82-0.52,1.73-0.52,2.71c0,0.98,0.17,1.89,0.52,2.72s0.84,1.56,1.46,2.18
			c0.63,0.62,1.36,1.1,2.2,1.44C507.48,169.39,508.39,169.56,509.37,169.56z"/>
		<path class="st0" d="M533.69,171.63l-7.84-17.82h2.75l7.2,16.45h-1.58l7.26-16.45h2.54l-7.82,17.82H533.69z"/>
		<path class="st0" d="M549.4,171.63l8.07-17.82h2.52l8.1,17.82h-2.68l-7.2-16.4h1.01l-7.2,16.4H549.4z M552.84,167.17l0.68-2.04
			h10.04l0.74,2.04H552.84z"/>
		<path class="st0" d="M579.75,171.63v-15.61h-6.11v-2.22h14.74v2.22h-6.11v15.61H579.75z"/>
		<path class="st0" d="M597.52,171.63V153.8h2.55v17.82H597.52z"/>
		<path class="st0" d="M619.83,171.83c-1.36,0-2.62-0.23-3.78-0.69c-1.16-0.46-2.17-1.1-3.02-1.92c-0.85-0.82-1.51-1.79-1.99-2.89
			c-0.48-1.1-0.71-2.31-0.71-3.61c0-1.31,0.24-2.52,0.71-3.62c0.48-1.1,1.14-2.06,1.99-2.89c0.85-0.82,1.85-1.46,3-1.92
			c1.16-0.46,2.42-0.69,3.8-0.69c1.36,0,2.61,0.22,3.77,0.68c1.15,0.45,2.16,1.09,3,1.91c0.85,0.82,1.5,1.79,1.97,2.9
			s0.7,2.32,0.7,3.63c0,1.32-0.23,2.54-0.7,3.64c-0.47,1.1-1.12,2.07-1.97,2.89c-0.85,0.82-1.85,1.46-3,1.91
			C622.44,171.61,621.19,171.83,619.83,171.83z M619.8,169.56c1,0,1.92-0.17,2.76-0.51c0.84-0.34,1.57-0.82,2.19-1.44
			c0.62-0.62,1.11-1.34,1.45-2.18c0.35-0.83,0.52-1.74,0.52-2.72c0-0.99-0.17-1.89-0.52-2.71c-0.35-0.82-0.83-1.55-1.45-2.18
			c-0.62-0.63-1.35-1.11-2.19-1.45c-0.84-0.34-1.76-0.51-2.76-0.51c-0.98,0-1.89,0.17-2.74,0.51c-0.84,0.34-1.57,0.82-2.2,1.45
			c-0.63,0.63-1.12,1.36-1.47,2.18c-0.35,0.82-0.52,1.73-0.52,2.71c0,0.98,0.17,1.89,0.52,2.72s0.84,1.56,1.47,2.18
			c0.63,0.62,1.36,1.1,2.2,1.44C617.91,169.39,618.82,169.56,619.8,169.56z"/>
		<path class="st0" d="M639.54,171.63V153.8h2.09l11.79,14.64h-1.1V153.8h2.55v17.82h-2.09l-11.79-14.64h1.1v14.64H639.54z"/>
	</g>
</g>
<g>
</g>
<g>
</g>
<g>
</g>
<g>
</g>
<g>
</g>
<g>
</g>
</svg>
