<?xml version="1.0" encoding="UTF-8"?>
<svg id="Livello_1" data-name="Livello 1" xmlns="http://www.w3.org/2000/svg" viewBox="0 0 131.93 85.04">
  <defs>
    <style>
      .cls-1 {
        fill: #0055a2;
      }

      .cls-2 {
        fill: #005db1;
      }

      .cls-3 {
        fill: #39444e;
      }
    </style>
  </defs>
  <path class="cls-3" d="m131.4,32.25c.42-2.09.6-4.26.51-6.49C131.3,11.27,119.02,0,104.51,0h-22.96s-18.72,0-18.72,0v15.99c0,1.29-1.63,1.83-2.42.8C52.66,6.59,40.39,0,26.58,0H0v74.52c14.46-21.03,51.12-55.55,131.4-42.26Z"/>
  <path class="cls-2" d="m23.83,85.04h2.75c13.87,0,26.19-6.65,33.95-16.93.75-.99,2.31-.47,2.31.76v16.16h18.72v-31.23h23.47c9.73,0,18.25-5.17,22.98-12.9-20.26-1.42-85.85-2.25-104.18,44.13Z"/>
  <path class="cls-1" d="m122.01,47.76c2.36-1.93,4.4-4.24,5.99-6.85-20.26-1.42-85.85-2.25-104.18,44.13h.01c20.94-37.59,76.63-38.46,98.17-37.28Z"/>
</svg>